# xmcd CD database file
#
# Track frame offsets:
#	150
#	11869
#	23895
#	35638
#	47012
#	59944
#	76950
#	88624
#	100480
#	112910
#	124294
#	137078
#	149637
#	162276
#	171788
#	181183
#	192378
#	201987
#	215011
#	224722
#	237236
#	247881
#	260420
#	272204
#	285065
#	297323
#	310284
#	322842
#	332716
#
# Disc length: 4592 seconds
#
# Revision: 1
# Processed by: cddbd v1.5.2PL0 Copyright (c) Steve Scherf et al.
# Submitted via: CDex 1.40Beta9
#
DISCID=c311ee1d
DTITLE=Various Artist - The Complete Motown Singles Volume 2 [CD8]
DYEAR=2005
DGENRE=R&B/Soul
TTITLE0=The Supremes - Your Heart Belongs To Me
TTITLE1=The Supremes - (He's) Seventeen
TTITLE2=The Supremes - Your Heart Belongs To Me [second pressing, with echo]
TTITLE3=Hank and Carol Diamond - Exodus
TTITLE4=Hank and Carol Diamond - I Remember You
TTITLE5=Earl Washington All Stars - Opus No. 3
TTITLE6=Earl Washington All Stars - March Lightly
TTITLE7=The Valadiers - Because I Love Her
TTITLE8=The Valadiers - While I'm Away
TTITLE9=Little Stevie Wonder - I Call It Pretty Music But The Old People Call It The Blues (Part 1)
TTITLE10=Little Stevie Wonder - I Call It Pretty Music But The Old People Call It The Blues (Part 2)
TTITLE11=Herman Griffin - Sleep (Little One)
TTITLE12=Herman Griffin and Band - Uptight
TTITLE13=Lamont Dozier - Dearest One
TTITLE14=Lamont Dozier - Fortune Teller (Tell Me)
TTITLE15=Mickey McCullers - Same Old Story
TTITLE16=Mickey McCullers - I'll Cry A Million Tears
TTITLE17=The Contours - Do You Love Me
TTITLE18=The Contours - Move Mr. Man
TTITLE19=Hattie Littles - Back In My Arms
TTITLE20=Hattie Littles - Is It True (What They Say About You)
TTITLE21=Gino Parks - Fire
TTITLE22=Gino Parks - For This I Thank You
TTITLE23=Mike and The Modifiers - I Found Myself A Brand New Baby
TTITLE24=Mike and The Modifiers - It's Too Bad
TTITLE25=Henry Lumpkin - Mojo Hannah
TTITLE26=Henry Lumpkin - Break Down And Sing
TTITLE27=The Marvelettes - Beechwood 4-5789
TTITLE28=The Marvelettes - Someday, Someway
EXTD=YEAR: 2005
EXTT0=
EXTT1=
EXTT2=
EXTT3=
EXTT4=
EXTT5=
EXTT6=
EXTT7=
EXTT8=
EXTT9=
EXTT10=
EXTT11=
EXTT12=
EXTT13=
EXTT14=
EXTT15=
EXTT16=
EXTT17=
EXTT18=
EXTT19=
EXTT20=
EXTT21=
EXTT22=
EXTT23=
EXTT24=
EXTT25=
EXTT26=
EXTT27=
EXTT28=
PLAYORDER=
